PathFileType	4	(X/Y/Z)	output.trc
DataRate	CameraRate	NumFrames	NumMarkers	Units	OrigDataRate	OrigDataStartFrame	OrigNumFrames
100	100	16	23	m	100	1156	4621
Frame#	Time	C7			T8			EL			EM			US			RS			AA			Fore_Clus_1			Fore_Clus_2			Fore_Clus_3			Fore_Clus_4			Hum_Clus_1			Hum_Clus_2			Hum_Clus_3			Hum_Clus_4			Thor_Clus_1			Thor_Clus_2			Thor_Clus_3			Thor_Clus_4			IJ			PX			GH			Thor_Clus_5		
		X1	Y1	Z1	X2	Y2	Z2	X3	Y3	Z3	X4	Y4	Z4	X5	Y5	Z5	X6	Y6	Z6	X7	Y7	Z7	X8	Y8	Z8	X9	Y9	Z9	X10	Y10	Z10	X11	Y11	Z11	X12	Y12	Z12	X13	Y13	Z13	X14	Y14	Z14	X15	Y15	Z15	X16	Y16	Z16	X17	Y17	Z17	X18	Y18	Z18	X19	Y19	Z19	X20	Y20	Z20	X21	Y21	Z21	X22	Y22	Z22	X23	Y23	Z23
1155	11.550000	-0.070229	1.441695	-0.096769	-0.068046	1.214678	-0.090223	-0.292154	1.118102	-0.030187	-0.256791	1.094676	-0.082714	-0.436168	0.904608	-0.062213	-0.405243	0.883715	-0.031450	-0.197182	1.355116	0.028659	-0.432016	0.956304	-0.028957	-0.460645	0.909914	-0.035384	-0.443592	0.897167	-0.017918	-0.404494	0.935577	-0.000171	-0.268402	1.204692	0.042878	-0.291205	1.238923	-0.001268	-0.272669	1.296302	0.019027	-0.240463	1.270981	0.061273	0.054831	1.329770	0.026051	0.015977	1.283363	0.084637	0.016940	1.329129	0.049492	0.070219	1.283808	0.050176	-0.011285	1.360110	-0.018531	0.024875	1.152910	0.058057	-0.153311	1.340485	0.020180	0.008766	1.303535	0.073716
1156	11.560000	-0.070250	1.441734	-0.096822	-0.068102	1.214715	-0.090318	-0.292129	1.118031	-0.030328	-0.256724	1.094605	-0.082826	-0.436207	0.904591	-0.062465	-0.405310	0.883686	-0.031683	-0.197239	1.355151	0.028566	-0.432008	0.956179	-0.029099	-0.460755	0.909952	-0.035769	-0.443723	0.897207	-0.018190	-0.404665	0.935605	-0.000416	-0.268434	1.204652	0.042725	-0.291244	1.238847	-0.001484	-0.272728	1.296239	0.018845	-0.240578	1.270941	0.061107	0.054790	1.329798	0.026016	0.015889	1.283349	0.084568	0.016858	1.329111	0.049428	0.070131	1.283810	0.050107	-0.011332	1.360126	-0.018589	0.024782	1.152907	0.057969	-0.153397	1.340476	0.020074	0.008678	1.303519	0.073667
1157	11.570000	-0.070272	1.441770	-0.096874	-0.068161	1.214750	-0.090408	-0.292118	1.117968	-0.030469	-0.256676	1.094541	-0.082942	-0.436262	0.904588	-0.062710	-0.405393	0.883664	-0.031911	-0.197295	1.355185	0.028479	-0.432183	0.956398	-0.029575	-0.460878	0.910027	-0.036168	-0.443895	0.897292	-0.018459	-0.404895	0.935679	-0.000715	-0.268474	1.204586	0.042572	-0.291254	1.238770	-0.001674	-0.272760	1.296177	0.018667	-0.240662	1.270889	0.060970	0.054701	1.329782	0.025953	0.015821	1.283353	0.084539	0.016820	1.329114	0.049398	0.070067	1.283799	0.050056	-0.011380	1.360139	-0.018645	0.024690	1.152901	0.057882	-0.153482	1.340465	0.019965	0.008593	1.303524	0.073604
1158	11.580000	-0.070301	1.441792	-0.096932	-0.068220	1.214771	-0.090493	-0.292122	1.117914	-0.030605	-0.256647	1.094486	-0.083056	-0.436328	0.904591	-0.062936	-0.405480	0.883649	-0.032129	-0.197353	1.355208	0.028392	-0.432282	0.956370	-0.029856	-0.461083	0.910173	-0.036584	-0.444117	0.897396	-0.018758	-0.405082	0.935758	-0.001028	-0.268499	1.204498	0.042426	-0.291252	1.238671	-0.001823	-0.272819	1.296093	0.018530	-0.240735	1.270811	0.060841	0.054649	1.329772	0.025925	0.015722	1.283346	0.084495	0.016726	1.329084	0.049324	0.069978	1.283780	0.050020	-0.011431	1.360144	-0.018704	0.024601	1.152892	0.057803	-0.153566	1.340454	0.019857	0.008513	1.303516	0.073550
1159	11.590000	-0.070334	1.441805	-0.096992	-0.068283	1.214783	-0.090573	-0.292142	1.117871	-0.030741	-0.256640	1.094442	-0.083172	-0.436404	0.904605	-0.063146	-0.405572	0.883642	-0.032336	-0.197413	1.355227	0.028308	-0.432493	0.956575	-0.030303	-0.461222	0.910250	-0.036948	-0.444372	0.897482	-0.019075	-0.405258	0.935825	-0.001341	-0.268533	1.204436	0.042289	-0.291261	1.238605	-0.001965	-0.272885	1.296025	0.018387	-0.240792	1.270756	0.060716	0.054593	1.329750	0.025865	0.015652	1.283335	0.084440	0.016685	1.329091	0.049271	0.069893	1.283752	0.049962	-0.011484	1.360143	-0.018764	0.024512	1.152879	0.057730	-0.153647	1.340444	0.019748	0.008433	1.303509	0.073503
1160	11.600000	-0.070370	1.441810	-0.097055	-0.068350	1.214788	-0.090648	-0.292178	1.117842	-0.030876	-0.256654	1.094410	-0.083292	-0.436489	0.904628	-0.063335	-0.405667	0.883644	-0.032530	-0.197475	1.355242	0.028227	-0.432601	0.956590	-0.030519	-0.461324	0.910284	-0.037170	-0.444548	0.897499	-0.019400	-0.405388	0.935832	-0.001540	-0.268603	1.204395	0.042157	-0.291306	1.238557	-0.002102	-0.272967	1.295996	0.018265	-0.240869	1.270715	0.060589	0.054529	1.329760	0.025785	0.015572	1.283314	0.084386	0.016614	1.329066	0.049192	0.069814	1.283739	0.049892	-0.011540	1.360136	-0.018826	0.024421	1.152864	0.057661	-0.153727	1.340436	0.019638	0.008371	1.303492	0.073428
1161	11.610000	-0.070413	1.441803	-0.097126	-0.068418	1.214780	-0.090719	-0.292229	1.117825	-0.031008	-0.256688	1.094390	-0.083410	-0.436577	0.904655	-0.063497	-0.405755	0.883654	-0.032704	-0.197539	1.355248	0.028144	-0.432672	0.956581	-0.030645	-0.461386	0.910278	-0.037288	-0.444620	0.897475	-0.019620	-0.405413	0.935794	-0.001713	-0.268698	1.204423	0.042023	-0.291386	1.238556	-0.002230	-0.273066	1.296005	0.018105	-0.240980	1.270740	0.060463	0.054488	1.329756	0.025752	0.015501	1.283298	0.084327	0.016556	1.329064	0.049139	0.069740	1.283705	0.049836	-0.011599	1.360122	-0.018890	0.024331	1.152846	0.057600	-0.153803	1.340429	0.019532	0.008301	1.303486	0.073369
1162	11.620000	-0.070455	1.441794	-0.097196	-0.068491	1.214771	-0.090787	-0.292293	1.117821	-0.031139	-0.256740	1.094384	-0.083533	-0.436668	0.904693	-0.063638	-0.405842	0.883672	-0.032863	-0.197603	1.355258	0.028064	-0.432716	0.956556	-0.030683	-0.461430	0.910254	-0.037331	-0.444630	0.897422	-0.019731	-0.405434	0.935730	-0.001787	-0.268842	1.204434	0.041884	-0.291488	1.238582	-0.002361	-0.273163	1.296022	0.017964	-0.241080	1.270778	0.060337	0.054415	1.329759	0.025659	0.015428	1.283260	0.084261	0.016468	1.329048	0.049064	0.069673	1.283687	0.049774	-0.011659	1.360107	-0.018955	0.024238	1.152826	0.057540	-0.153876	1.340425	0.019424	0.008228	1.303472	0.073303
1163	11.630000	-0.070500	1.441778	-0.097273	-0.068563	1.214755	-0.090854	-0.292368	1.117829	-0.031266	-0.256807	1.094390	-0.083653	-0.436758	0.904730	-0.063750	-0.405916	0.883696	-0.033000	-0.197669	1.355263	0.027980	-0.432752	0.956524	-0.030678	-0.461452	0.910232	-0.037336	-0.444613	0.897376	-0.019796	-0.405416	0.935699	-0.001860	-0.268990	1.204484	0.041750	-0.291587	1.238623	-0.002489	-0.273257	1.296064	0.017809	-0.241190	1.270830	0.060203	0.054355	1.329711	0.025621	0.015355	1.283246	0.084201	0.016421	1.329017	0.048984	0.069587	1.283635	0.049694	-0.011720	1.360087	-0.019024	0.024145	1.152805	0.057484	-0.153944	1.340424	0.019320	0.008182	1.303457	0.073239
1164	11.640000	-0.070541	1.441763	-0.097351	-0.068636	1.214740	-0.090922	-0.292450	1.117848	-0.031389	-0.256887	1.094406	-0.083773	-0.436844	0.904770	-0.063838	-0.405981	0.883725	-0.033116	-0.197733	1.355270	0.027894	-0.432792	0.956516	-0.030655	-0.461484	0.910227	-0.037313	-0.444604	0.897343	-0.019825	-0.405405	0.935669	-0.001903	-0.269097	1.204521	0.041626	-0.291700	1.238680	-0.002593	-0.273342	1.296121	0.017689	-0.241292	1.270867	0.060084	0.054283	1.329679	0.025555	0.015273	1.283204	0.084136	0.016346	1.328988	0.048881	0.069520	1.283603	0.049634	-0.011779	1.360067	-0.019092	0.024051	1.152784	0.057427	-0.154008	1.340426	0.019218	0.008114	1.303431	0.073169
1165	11.650000	-0.070578	1.441753	-0.097428	-0.068707	1.214730	-0.090993	-0.292539	1.117875	-0.031507	-0.256977	1.094431	-0.083891	-0.436926	0.904811	-0.063902	-0.406037	0.883758	-0.033212	-0.197796	1.355282	0.027806	-0.432814	0.956508	-0.030647	-0.461504	0.910217	-0.037294	-0.444581	0.897333	-0.019843	-0.405377	0.935662	-0.001956	-0.269176	1.204556	0.041522	-0.291788	1.238727	-0.002685	-0.273408	1.296166	0.017580	-0.241355	1.270899	0.059974	0.054227	1.329677	0.025495	0.015186	1.283180	0.084058	0.016296	1.328983	0.048835	0.069444	1.283571	0.049573	-0.011836	1.360050	-0.019161	0.023955	1.152764	0.057367	-0.154066	1.340431	0.019118	0.008039	1.303415	0.073119
1166	11.660000	-0.070610	1.441744	-0.097509	-0.068771	1.214721	-0.091068	-0.292629	1.117908	-0.031617	-0.257071	1.094461	-0.084002	-0.437000	0.904845	-0.063941	-0.406078	0.883790	-0.033284	-0.197856	1.355293	0.027710	-0.432843	0.956495	-0.030616	-0.461532	0.910198	-0.037251	-0.444563	0.897306	-0.019847	-0.405363	0.935643	-0.001985	-0.269228	1.204566	0.041427	-0.291868	1.238755	-0.002751	-0.273470	1.296178	0.017506	-0.241404	1.270895	0.059893	0.054159	1.329647	0.025431	0.015100	1.283142	0.083990	0.016207	1.328955	0.048754	0.069371	1.283544	0.049522	-0.011890	1.360035	-0.019232	0.023863	1.152745	0.057305	-0.154120	1.340438	0.019020	0.007979	1.303410	0.073053
1167	11.670000	-0.070631	1.441748	-0.097584	-0.068830	1.214724	-0.091151	-0.292720	1.117945	-0.031722	-0.257169	1.094495	-0.084111	-0.437068	0.904878	-0.063962	-0.406114	0.883823	-0.033338	-0.197912	1.355314	0.027612	-0.432851	0.956480	-0.030606	-0.461533	0.910180	-0.037224	-0.444531	0.897279	-0.019846	-0.405331	0.935632	-0.002017	-0.269270	1.204582	0.041347	-0.291931	1.238785	-0.002823	-0.273506	1.296201	0.017444	-0.241441	1.270899	0.059807	0.054131	1.329664	0.025397	0.015048	1.283122	0.083922	0.016176	1.328946	0.048706	0.069309	1.283525	0.049472	-0.011937	1.360027	-0.019301	0.023770	1.152729	0.057236	-0.154168	1.340446	0.018922	0.007869	1.303387	0.072966
1168	11.680000	-0.070645	1.441757	-0.097662	-0.068878	1.214733	-0.091240	-0.292808	1.117982	-0.031816	-0.257267	1.094527	-0.084209	-0.437128	0.904898	-0.063962	-0.406136	0.883853	-0.033369	-0.197963	1.355335	0.027503	-0.432870	0.956437	-0.030564	-0.461541	0.910118	-0.037152	-0.444497	0.897220	-0.019812	-0.405312	0.935605	-0.002019	-0.269310	1.204583	0.041264	-0.291982	1.238799	-0.002870	-0.273545	1.296205	0.017388	-0.241463	1.270900	0.059738	0.054081	1.329637	0.025355	0.014974	1.283108	0.083856	0.016107	1.328942	0.048654	0.069246	1.283502	0.049423	-0.011978	1.360024	-0.019371	0.023683	1.152717	0.057162	-0.154210	1.340455	0.018826	0.007746	1.303370	0.072815
1169	11.690000	-0.070647	1.441777	-0.097737	-0.068916	1.214752	-0.091337	-0.292893	1.118017	-0.031900	-0.257363	1.094558	-0.084299	-0.437180	0.904910	-0.063947	-0.406154	0.883878	-0.033381	-0.198009	1.355361	0.027388	-0.432871	0.956389	-0.030507	-0.461537	0.910072	-0.037065	-0.444452	0.897172	-0.019758	-0.405271	0.935573	-0.002003	-0.269344	1.204610	0.041193	-0.292035	1.238844	-0.002942	-0.273567	1.296242	0.017327	-0.241475	1.270913	0.059655	0.053996	1.329607	0.025273	0.014900	1.283102	0.083762	0.016073	1.328933	0.048579	0.069191	1.283485	0.049381	-0.012012	1.360027	-0.019440	0.023600	1.152708	0.057082	-0.154248	1.340464	0.018729	0.007687	1.303355	0.072771
1170	11.700000	-0.070640	1.441808	-0.097809	-0.068942	1.214782	-0.091441	-0.292973	1.118048	-0.031976	-0.257455	1.094583	-0.084381	-0.437226	0.904912	-0.063922	-0.406169	0.883897	-0.033375	-0.198050	1.355392	0.027267	-0.432882	0.956359	-0.030459	-0.461550	0.910026	-0.036998	-0.444428	0.897140	-0.019683	-0.405274	0.935573	-0.001969	-0.269396	1.204650	0.041117	-0.292100	1.238885	-0.003023	-0.273591	1.296280	0.017232	-0.241517	1.270941	0.059570	0.053961	1.329618	0.025225	0.014834	1.283090	0.083722	0.016021	1.328944	0.048513	0.069143	1.283483	0.049337	-0.012038	1.360038	-0.019507	0.023522	1.152702	0.056995	-0.154282	1.340472	0.018630	0.007612	1.303344	0.072708
